<svg width="45" height="45" viewBox="0 0 45 45" fill="none" xmlns="http://www.w3.org/2000/svg">
<path fill-rule="evenodd" clip-rule="evenodd" d="M22.5 0C10.0736 0 0 10.0736 0 22.5C0 34.9264 10.0736 45 22.5 45C34.9264 45 45 34.9264 45 22.5C45 10.0736 34.9264 0 22.5 0ZM13.9736 9.75H31.7764C33.2777 9.75 34.5 10.9575 34.5 12.4537V36L31.6436 33.5062L30.036 32.0362L28.3354 30.4744L29.0396 32.9025H13.9736C12.4723 32.9025 11.25 31.695 11.25 30.1987V12.4537C11.25 10.9575 12.4723 9.75 13.9736 9.75Z" fill="white"/>
<path fill-rule="evenodd" clip-rule="evenodd" d="M26.6481 26.8912C26.6481 26.8912 26.1698 26.3268 25.7712 25.8281C27.5117 25.3424 28.1759 24.2662 28.1759 24.2662C27.6312 24.6206 27.1131 24.8699 26.6481 25.0406C25.9838 25.3162 25.3461 25.4999 24.7217 25.6049C23.4462 25.8412 22.2771 25.7756 21.2807 25.5918C20.5234 25.4474 19.8724 25.2374 19.3277 25.0274C19.0221 24.9093 18.6899 24.7649 18.3578 24.5812C18.3379 24.5681 18.3179 24.5582 18.298 24.5484C18.2781 24.5385 18.2582 24.5287 18.2382 24.5156C18.2117 24.5024 18.1984 24.4893 18.1851 24.4762C17.9459 24.3449 17.8131 24.2531 17.8131 24.2531C17.8131 24.2531 18.4508 25.3031 20.1381 25.8018C19.7395 26.3006 19.2479 26.8912 19.2479 26.8912C16.3118 26.7993 15.1958 24.8962 15.1958 24.8962C15.1958 20.6699 17.1089 17.2443 17.1089 17.2443C19.0221 15.8268 20.8422 15.8662 20.8422 15.8662L20.9751 16.0237C18.5837 16.7062 17.4809 17.7431 17.4809 17.7431C17.4809 17.7431 17.7732 17.5856 18.2648 17.3624C19.6864 16.7456 20.8157 16.5749 21.2807 16.5356L21.3104 16.5306C21.3775 16.5193 21.4369 16.5093 21.5065 16.5093C22.3169 16.4043 23.2337 16.3781 24.1902 16.4831C25.4524 16.6274 26.8075 16.9949 28.1892 17.7431C28.1892 17.7431 27.1397 16.7587 24.8811 16.0762L25.0671 15.8662C25.0671 15.8662 26.8872 15.8268 28.8004 17.2443C28.8004 17.2443 30.7135 20.6699 30.7135 24.8962C30.7135 24.8962 29.5842 26.7993 26.6481 26.8912ZM20.8444 20.9999C20.0931 20.9999 19.4999 21.6756 19.4999 22.4999C19.4999 23.3243 20.1063 23.9999 20.8444 23.9999C21.5957 23.9999 22.1889 23.3243 22.1889 22.4999C22.2021 21.6756 21.5957 20.9999 20.8444 20.9999ZM24.311 22.4999C24.311 21.6756 24.9042 20.9999 25.6555 20.9999C26.4068 20.9999 26.9999 21.6756 26.9999 22.4999C26.9999 23.3243 26.4068 23.9999 25.6555 23.9999C24.9173 23.9999 24.311 23.3243 24.311 22.4999Z" fill="white"/>
</svg>
