<svg width="45" height="45" viewBox="0 0 45 45" fill="none" xmlns="http://www.w3.org/2000/svg">
<path fill-rule="evenodd" clip-rule="evenodd" d="M22.5 0C10.0736 0 0 10.0736 0 22.5C0 34.9264 10.0736 45 22.5 45C34.9264 45 45 34.9264 45 22.5C45 10.0736 34.9264 0 22.5 0ZM21.8733 19.0668L21.8261 18.2883C21.6845 16.2704 22.9278 14.4273 24.8951 13.7123C25.6191 13.4581 26.8466 13.4263 27.6493 13.6488C27.9641 13.7441 28.5621 14.0619 28.987 14.3479L29.7582 14.8722L30.6081 14.6021C31.0802 14.4591 31.7098 14.2207 31.9931 14.0619C32.2606 13.9189 32.4967 13.8394 32.4967 13.8871C32.4967 14.1572 31.9144 15.0787 31.4265 15.5872C30.7655 16.3022 30.9543 16.3657 32.2921 15.8891C33.0947 15.619 33.1105 15.619 32.9531 15.9208C32.8587 16.0797 32.3708 16.6358 31.8514 17.1443C30.9701 18.0182 30.9229 18.1135 30.9229 18.8444C30.9229 19.9725 30.3877 22.324 29.8526 23.611C28.8611 26.0261 26.7365 28.5207 24.6118 29.7759C21.6215 31.5395 17.6397 31.9844 14.2875 30.9516C13.1701 30.6021 11.25 29.7123 11.25 29.5534C11.25 29.5058 11.8323 29.4422 12.5405 29.4263C14.0199 29.3945 15.4993 28.9814 16.7584 28.2506L17.6083 27.7421L16.6325 27.4084C15.2475 26.9318 14.0042 25.8355 13.6894 24.8027C13.595 24.469 13.6265 24.4531 14.5078 24.4531L15.4206 24.4372L14.6495 24.0718C13.7366 23.611 12.9025 22.8325 12.4933 22.038C12.1943 21.466 11.8166 20.0202 11.9267 19.9089C11.9582 19.8613 12.2887 19.9566 12.6664 20.0837C13.7524 20.4809 13.894 20.3856 13.2645 19.7183C12.0841 18.5107 11.7221 16.7153 12.2887 15.0152L12.5563 14.2525L13.595 15.2853C15.7197 17.3667 18.2221 18.6061 21.0864 18.9715L21.8733 19.0668Z" fill="white"/>
</svg>
